<?xml version="1.0" standalone="no"?>
<!DOCTYPE svg PUBLIC "-//W3C//DTD SVG 20010904//EN"
 "http://www.w3.org/TR/2001/REC-SVG-20010904/DTD/svg10.dtd">
<svg version="1.0" xmlns="http://www.w3.org/2000/svg"
 width="650.000000pt" height="369.000000pt" viewBox="0 0 650.000000 369.000000"
 preserveAspectRatio="xMidYMid meet">
<metadata>
Created by potrace 1.16, written by Peter Selinger 2001-2019
</metadata>
<g transform="translate(0.000000,369.000000) scale(0.100000,-0.100000)"
fill="#000000" stroke="none">
<path d="M2573 3540 c-301 -9 -410 -20 -458 -48 -16 -10 -63 -60 -103 -112
-40 -52 -109 -142 -154 -200 -57 -74 -85 -120 -94 -155 -17 -62 -17 -291 0
-360 11 -45 10 -54 -8 -86 -17 -31 -18 -41 -8 -63 l12 -26 228 0 228 0 13 -36
c46 -127 209 -190 337 -130 59 27 121 95 130 143 l6 33 543 0 c298 0 556 3
574 6 24 5 32 3 37 -12 29 -91 67 -137 139 -170 97 -46 222 -21 291 57 29 33
40 57 60 123 9 29 10 30 69 27 34 -1 67 -9 76 -17 23 -21 212 -20 233 2 23 23
20 70 -5 88 -21 15 -21 16 -9 143 9 95 10 153 2 225 -6 53 -8 105 -5 116 2 11
-2 33 -10 48 -8 16 -29 85 -47 154 -18 69 -39 136 -46 150 -17 35 -63 77 -98
90 -38 14 -1531 22 -1933 10z m1478 -29 c481 -8 480 -8 509 -62 10 -17 7 -23
-14 -40 -25 -20 -26 -25 -26 -123 0 -120 9 -135 87 -144 47 -5 63 -15 63 -39
0 -10 -204 -13 -985 -13 l-985 0 0 140 c0 128 -2 140 -20 150 -12 7 -106 9
-262 8 l-243 -3 -52 -104 c-57 -113 -64 -145 -34 -161 12 -6 124 -10 295 -10
177 0 276 -4 276 -10 0 -6 -110 -10 -310 -10 -382 0 -431 -9 -526 -93 l-37
-32 6 38 c3 21 15 53 27 72 22 35 22 35 96 35 l74 0 33 46 c37 52 105 200 106
229 1 11 -6 30 -14 42 -14 20 -13 22 19 37 59 28 178 37 570 45 514 10 818 11
1347 2z m-1959 -131 c-3 -33 -85 -202 -104 -218 -10 -8 -35 -12 -61 -10 l-45
3 96 127 c94 124 120 146 114 98z m138 -125 l0 -105 -65 0 c-36 0 -65 2 -65 4
0 9 46 106 72 154 46 82 58 71 58 -53z m430 0 l0 -105 -200 0 -200 0 0 105 0
105 200 0 200 0 0 -105z m2 -297 c3 -89 5 -103 21 -106 15 -3 17 7 17 102 l0
106 984 0 985 0 7 -57 c7 -61 -1 -324 -11 -359 -6 -19 -17 -23 -80 -29 -53 -5
-78 -12 -91 -26 -14 -15 -31 -19 -85 -19 -65 0 -68 1 -74 28 -11 51 -58 106
-117 135 -145 75 -319 1 -357 -150 l-11 -43 -569 0 c-559 0 -569 0 -574 20 -5
20 1 20 559 22 368 2 564 6 564 13 0 7 -198 11 -570 13 l-569 2 -17 36 c-46
97 -204 146 -315 97 -53 -24 -107 -75 -126 -120 l-13 -33 -141 0 c-115 0 -143
3 -156 16 -12 11 -30 15 -64 12 l-48 -3 -11 45 c-19 74 -24 183 -10 224 14 45
58 97 105 126 65 40 141 48 462 49 l302 1 3 -102z m-78 -265 c115 -81 115
-245 0 -322 -80 -53 -168 -53 -248 0 -109 73 -115 235 -12 314 48 36 81 45
155 41 50 -3 72 -10 105 -33z m1638 1 c117 -82 118 -246 2 -323 -80 -53 -168
-53 -248 0 -108 72 -115 235 -13 313 50 38 76 46 149 43 56 -2 74 -8 110 -33z
m-2316 -119 c5 -12 32 -15 155 -15 142 0 149 -1 149 -20 0 -19 -7 -20 -214
-20 -218 0 -242 4 -215 37 28 33 115 46 125 18z"/>
<path d="M3443 3422 c-41 -6 -53 -38 -53 -138 0 -142 -5 -138 222 -142 175 -3
185 -2 211 18 26 21 27 24 27 124 0 141 9 136 -211 139 -96 1 -184 1 -196 -1z
m371 -48 c3 -9 6 -49 6 -89 0 -40 -3 -80 -6 -89 -5 -14 -32 -16 -194 -16
l-188 0 -4 73 c-2 39 -1 87 1 105 l3 32 188 0 c162 0 189 -2 194 -16z"/>
<path d="M4014 3421 c-46 -8 -54 -28 -54 -136 0 -144 -7 -139 224 -143 173 -3
183 -2 209 18 26 21 27 24 27 124 0 85 -3 106 -18 119 -14 13 -50 16 -193 19
-97 2 -185 1 -195 -1z m370 -47 c3 -9 6 -49 6 -89 0 -40 -3 -80 -6 -89 -5 -14
-32 -16 -194 -16 -162 0 -189 2 -194 16 -3 9 -6 49 -6 89 0 40 3 80 6 89 5 14
32 16 194 16 162 0 189 -2 194 -16z"/>
<path d="M2816 3398 c-12 -16 -16 -47 -16 -116 0 -85 2 -95 25 -117 24 -25 27
-25 200 -25 171 0 208 6 227 34 4 6 8 56 8 112 0 141 12 134 -233 134 -191 0
-196 -1 -211 -22z m409 -31 c3 -12 5 -58 3 -102 l-3 -80 -192 -3 -193 -2 0 98
c0 54 3 102 7 105 3 4 89 7 189 7 182 0 184 0 189 -23z"/>
<path d="M2375 2617 c-19 -19 -37 -46 -41 -61 -15 -63 52 -146 118 -146 121 0
180 129 94 207 -31 28 -43 33 -87 33 -45 0 -55 -4 -84 -33z m134 -12 c52 -26
59 -95 15 -136 -57 -53 -154 -15 -154 61 0 74 70 111 139 75z"/>
<path d="M4014 2617 c-48 -43 -56 -97 -22 -147 71 -105 233 -58 233 67 0 39
-5 49 -37 79 -33 29 -45 34 -88 34 -43 0 -56 -5 -86 -33z m135 -12 c32 -16 41
-33 41 -79 0 -72 -99 -109 -154 -57 -80 75 14 188 113 136z"/>
<path d="M140 1881 c0 -7 107 -302 309 -856 l19 -50 99 -3 100 -3 88 243 c49
134 123 338 166 453 42 116 75 213 72 218 -2 4 -51 7 -108 7 l-103 0 -103
-307 c-56 -170 -104 -312 -107 -317 -3 -6 -53 132 -111 305 l-106 314 -107 3
c-63 1 -108 -1 -108 -7z"/>
<path d="M1445 1873 c-28 -75 -325 -893 -325 -897 0 -3 49 -6 109 -6 l110 0
22 70 23 70 166 0 166 0 23 -70 22 -70 111 0 c84 0 109 3 106 13 -96 268 -324
885 -331 895 -6 8 -40 12 -102 12 -79 0 -94 -3 -100 -17z m159 -428 c25 -77
46 -143 46 -148 0 -4 -46 -7 -101 -7 -92 0 -101 2 -97 18 29 103 94 290 99
284 4 -4 27 -70 53 -147z"/>
<path d="M2165 1868 c-3 -13 -4 -219 -3 -458 l3 -435 105 0 105 0 5 278 5 277
124 -222 c68 -123 138 -248 156 -278 l31 -55 117 -3 117 -3 0 461 0 460 -105
0 -105 0 -2 -287 -3 -288 -39 70 c-21 39 -93 168 -160 287 l-121 218 -112 0
c-109 0 -113 -1 -118 -22z"/>
<path d="M3187 1883 c-4 -3 -7 -210 -7 -460 l0 -453 305 0 305 0 0 90 0 90
-197 2 -198 3 -3 368 -2 367 -98 0 c-54 0 -102 -3 -105 -7z"/>
<path d="M3982 1798 l3 -93 113 -3 112 -3 -2 -272 -3 -272 -112 -3 -113 -3 0
-89 0 -90 335 0 335 0 0 90 0 90 -115 0 -115 0 0 275 0 274 113 3 112 3 0 90
0 90 -333 3 -333 2 3 -92z"/>
<path d="M4887 1883 c-4 -3 -7 -210 -7 -460 l0 -453 104 0 c77 0 105 3 109 13
3 8 5 87 5 178 l0 164 186 3 187 2 -3 93 -3 92 -182 3 -183 2 0 80 c0 44 -1
83 -2 88 -2 4 87 9 197 12 l200 5 3 93 3 92 -304 0 c-167 0 -307 -3 -310 -7z"/>
<path d="M5727 1883 c-4 -3 -7 -210 -7 -460 l0 -453 310 0 310 0 0 90 0 90
-202 2 -203 3 0 90 0 90 185 5 185 5 3 80 c2 66 0 82 -14 92 -13 9 -67 13
-191 13 l-173 0 0 85 0 85 203 2 202 3 0 90 0 90 -301 3 c-165 1 -303 -1 -307
-5z"/>
<path d="M804 560 c-43 -17 -65 -71 -48 -115 4 -9 38 -37 75 -61 69 -44 83
-66 57 -92 -17 -17 -74 -15 -103 4 -26 17 -45 12 -45 -12 0 -32 99 -45 149
-20 28 15 51 53 51 85 0 20 -38 56 -109 103 -30 20 -41 35 -41 53 0 33 42 45
83 22 37 -22 47 -21 47 3 0 35 -64 51 -116 30z"/>
<path d="M2765 563 c-31 -8 -83 -51 -100 -83 -22 -42 -19 -118 5 -158 37 -61
140 -89 214 -58 31 13 33 17 32 57 0 26 4 44 12 47 31 10 6 22 -48 22 -33 0
-60 -4 -60 -10 0 -5 7 -10 15 -10 19 0 38 -46 30 -71 -5 -14 -16 -19 -46 -19
-101 0 -165 152 -96 228 25 27 101 31 146 7 16 -8 31 -11 35 -8 13 13 5 43
-13 53 -20 10 -89 12 -126 3z"/>
<path d="M3294 553 c-24 -73 -109 -261 -125 -275 -28 -24 -24 -27 31 -26 54 0
59 4 33 23 -15 11 -15 17 -5 39 11 25 15 27 73 24 71 -3 94 -22 71 -58 -6 -11
-12 -22 -12 -25 0 -3 27 -5 60 -4 63 2 71 7 42 26 -10 6 -38 58 -62 115 -72
175 -92 205 -106 161z"/>
<path d="M4934 533 c-55 -133 -110 -246 -125 -257 -11 -7 -16 -16 -12 -19 10
-11 91 -8 98 3 3 6 -1 10 -9 10 -16 0 -21 26 -10 54 5 12 21 16 70 16 61 0 65
-1 75 -27 8 -22 7 -30 -5 -39 -27 -19 -18 -24 44 -24 62 0 71 5 45 24 -8 6
-41 74 -74 151 -33 77 -65 141 -71 143 -6 2 -17 -14 -26 -35z"/>
<path d="M5250 568 c-1 -2 -5 -66 -10 -143 -7 -107 -13 -142 -25 -151 -25 -18
-18 -24 30 -24 49 0 53 4 30 26 -16 16 -18 60 -7 131 l7 43 48 -95 c27 -52 54
-95 61 -95 6 0 32 41 56 92 l45 92 7 -40 c12 -69 9 -124 -7 -130 -32 -12 -13
-24 38 -24 61 0 75 8 48 26 -16 11 -19 33 -26 154 -4 77 -11 140 -16 140 -5 0
-36 -55 -70 -121 -70 -140 -55 -142 -140 19 -44 84 -67 116 -69 100z"/>
<path d="M1038 544 c21 -14 22 -22 22 -134 0 -109 -2 -121 -20 -132 -11 -7
-20 -15 -20 -18 0 -9 230 -4 239 6 5 5 13 22 17 37 l6 28 -37 -25 c-26 -18
-51 -26 -81 -26 -41 0 -43 2 -49 34 -12 60 -4 81 30 80 17 0 37 -4 46 -8 11
-5 19 1 28 20 15 33 11 37 -23 24 -62 -23 -86 -10 -86 49 0 47 21 65 66 58 21
-4 44 -14 51 -23 13 -18 12 -21 28 31 4 13 -14 15 -118 15 -113 0 -120 -1 -99
-16z"/>
<path d="M1378 540 c20 -19 22 -31 22 -130 0 -85 -3 -112 -16 -124 -8 -9 -20
-16 -25 -16 -5 0 -9 -3 -9 -7 0 -11 222 -10 238 1 16 10 32 48 25 59 -3 5 -16
-2 -29 -14 -19 -18 -37 -23 -77 -24 l-52 0 -3 120 c-3 113 -1 121 19 138 21
17 19 17 -47 17 l-68 0 22 -20z"/>
<path d="M1708 543 c21 -14 22 -23 22 -125 0 -111 -9 -148 -35 -148 -8 0 -15
-3 -15 -7 0 -5 52 -8 116 -8 115 0 117 0 137 27 25 33 13 58 -14 29 -23 -25
-54 -34 -100 -29 l-34 3 -3 120 c-3 113 -1 121 19 138 21 17 19 17 -47 16 -66
0 -68 -1 -46 -16z"/>
<path d="M2038 540 c20 -19 22 -30 22 -135 0 -104 -2 -116 -20 -127 -33 -21
-23 -28 38 -28 67 0 80 7 52 27 -18 13 -20 26 -20 133 0 111 1 120 22 134 21
15 19 16 -47 16 l-69 0 22 -20z"/>
<path d="M2246 543 c5 -10 10 -70 12 -133 3 -105 2 -116 -17 -131 -27 -22 -17
-29 41 -29 52 0 60 8 28 28 -18 11 -20 23 -20 105 l1 92 108 -112 c60 -62 113
-113 117 -113 5 0 8 61 7 135 -3 127 -2 135 19 155 l22 20 -60 0 c-58 0 -58
-1 -37 -18 25 -20 26 -23 24 -122 l-1 -75 -101 108 c-76 81 -107 107 -126 107
-20 0 -24 -3 -17 -17z"/>
<path d="M3698 540 c20 -19 22 -30 22 -130 0 -85 -3 -112 -16 -124 -8 -9 -20
-16 -25 -16 -5 0 -9 -3 -9 -8 0 -4 46 -7 103 -7 84 1 109 4 136 20 49 29 73
67 79 123 5 55 -10 92 -53 132 -25 23 -35 25 -143 28 l-117 4 23 -22z m172
-15 c74 -38 91 -185 27 -230 -29 -21 -113 -20 -121 1 -8 21 -8 229 1 237 11
12 63 7 93 -8z"/>
<path d="M4088 543 c21 -15 22 -22 22 -134 0 -106 -2 -119 -20 -132 -29 -20
-15 -27 57 -27 66 0 79 8 41 25 -19 8 -24 19 -26 63 -3 50 -2 52 23 52 18 0
36 -11 53 -32 88 -103 94 -108 129 -108 l34 0 -33 33 c-63 63 -114 127 -101
127 23 0 53 39 53 70 0 19 -9 40 -25 55 -23 23 -31 25 -127 24 -97 0 -102 -1
-80 -16z"/>
<path d="M4478 544 c21 -14 22 -22 22 -134 0 -109 -2 -121 -20 -132 -11 -7
-20 -15 -20 -18 0 -3 52 -5 116 -5 102 1 118 3 130 20 8 10 14 28 14 39 0 18
-1 18 -25 -4 -20 -19 -37 -24 -78 -25 l-52 0 -3 58 c-3 52 -1 57 18 57 12 0
31 -5 42 -11 18 -9 24 -8 35 7 23 32 17 44 -19 33 -18 -5 -43 -9 -56 -9 -22 0
-23 3 -20 58 l3 57 37 3 c27 2 43 -3 58 -18 25 -25 25 -25 34 13 l6 27 -122 0
c-114 0 -121 -1 -100 -16z"/>
</g>
</svg>
